<?xml version="1.0" encoding="utf-8"?>
<svg width="1024px" height="1024px" viewBox="0 0 1024 1024" version="1.1" xmlns:xlink="http://www.w3.org/1999/xlink" xmlns="http://www.w3.org/2000/svg">
  <g>
    <path d="M1014 154L7 154L7 875L1014 875L1014 154ZM997 172L27 172L27 852L997 852L997 172Z" id="Rectangle-Difference" fill="#D3D3D3" fill-rule="evenodd" stroke="none" />
    <g transform="translate(27 172)">
      <path d="M0 0L970 0L970 680L0 680L0 0Z" fill-opacity="0" />
      <g>
        <path d="M0 0L970 0L970 680L0 680L0 0Z" fill="#568DBD" fill-rule="evenodd" stroke="none" />
        <path d="M706 447C706 447 721.375 374.25 745 314.5C768.625 254.75 800.5 202 800.5 202C800.5 202 818.375 203.25 860.5 186C902.625 168.75 969 127 969 127L969 268.5L706 447Z" fill="#3774B9" fill-rule="evenodd" stroke="none" />
        <path d="M814 95.5C814 95.5 840.75 120.25 879.5 124C918.25 127.75 966 110 966 110C966 110 912.875 141.25 875 155.5C837.125 169.75 786 177 786 177L814 95.5Z" fill="#3E7DB4" fill-rule="evenodd" stroke="none" />
        <path d="M306 380C306 380 336.03 322.797 357.5 268C378.97 213.203 389 147.5 389 147.5C389 147.5 468.269 158.317 568.5 158C668.731 157.683 763.5 134.5 763.5 134.5L367 539L306 380Z" fill="#65A5DD" fill-rule="evenodd" stroke="none" />
        <path d="M1 628C1 628 149 523.625 211 447C273 370.375 291 316.5 291 316.5L363.5 504.5L240 680.5L1 680.5L1 628Z" fill="#25569D" fill-rule="evenodd" stroke="none" />
        <path d="M0.999998 680L66 680C66 680 100.891 549.765 150 460.5C148.565 460.124 0.999998 431 0.999998 431L0.999998 680Z" fill="#1E3675" fill-rule="evenodd" stroke="none" />
        <path d="M135 0L477 0C477 0 410.75 46.2468 355 118C299.25 189.753 254 266.5 254 266.5L135 0Z" fill="#5794C9" fill-rule="evenodd" stroke="none" />
        <path d="M197 361L261.709 255.368C261.709 255.368 232.75 180.5 205 117.5C177.25 54.5 149 0.245621 149 0.245621L100.208 -0.0467834L100.5 361L197 361Z" fill="#397BC6" fill-rule="evenodd" stroke="none" />
        <path d="M118.5 4C118.5 4 158.684 94.8683 183 189C207.316 283.132 202 353 202 353L159.5 439L118.5 4Z" fill="#3369A7" fill-rule="evenodd" stroke="none" />
        <path d="M-1 620C-1 620 200.605 503.163 179.5 296.5C158.395 89.8374 118.5 1.5 118.5 1.5L-1 1.5L-1 620Z" fill="#25569D" fill-rule="evenodd" stroke="none" />
        <path d="M205 680C205 680 285.163 555.777 452 382C618.837 208.224 875.5 51 875.5 51C875.5 51 747.807 226.405 699 407C650.193 587.595 665 680 665 680L205 680Z" fill="#3369A7" fill-rule="evenodd" stroke="none" />
        <path d="M331 679C331 679 525.875 563.125 683 449.5C840.125 335.875 969.5 224.5 969.5 224.5L969.5 679L331 679Z" fill="#2C5B92" fill-rule="evenodd" stroke="none" />
        <path d="M968 408C968 408 969.468 679.592 968 680C966.532 680.408 329.5 680 329.5 680C329.5 680 386.625 649.625 443 614.5C499.375 579.375 555 539.5 555 539.5C555 539.5 731.625 501.75 822 470C912.375 438.25 968 408 968 408Z" fill="#1E3675" fill-rule="evenodd" stroke="none" />
      </g>
    </g>
    <path d="M27 172L997 172L997 269L27 269L27 172Z" fill="#D3D3D3" fill-opacity="0.69803923" fill-rule="evenodd" stroke="none" />
    <path d="M82.999 708L940.001 708Q940.786 708 941.571 708.039Q942.356 708.077 943.137 708.154Q943.919 708.231 944.696 708.346Q945.473 708.462 946.244 708.615Q947.014 708.768 947.776 708.959Q948.538 709.15 949.29 709.378Q950.041 709.606 950.781 709.87Q951.521 710.135 952.246 710.436Q952.972 710.736 953.682 711.072Q954.392 711.408 955.085 711.778Q955.778 712.149 956.452 712.552Q957.125 712.956 957.779 713.393Q958.432 713.829 959.063 714.297Q959.694 714.765 960.301 715.263Q960.908 715.762 961.49 716.289Q962.072 716.817 962.628 717.372Q963.183 717.928 963.711 718.51Q964.238 719.092 964.737 719.699Q965.235 720.306 965.703 720.937Q966.171 721.568 966.607 722.221Q967.043 722.874 967.447 723.548Q967.851 724.222 968.222 724.915Q968.592 725.608 968.928 726.318Q969.263 727.028 969.564 727.753Q969.865 728.479 970.129 729.219Q970.394 729.959 970.622 730.71Q970.85 731.462 971.041 732.224Q971.232 732.986 971.385 733.756Q971.538 734.527 971.654 735.304Q971.769 736.081 971.846 736.863Q971.923 737.644 971.961 738.429Q972 739.214 972 739.999L972 843.001Q972 843.786 971.961 844.571Q971.923 845.356 971.846 846.137Q971.769 846.919 971.654 847.696Q971.538 848.473 971.385 849.244Q971.232 850.014 971.041 850.776Q970.85 851.538 970.622 852.29Q970.394 853.041 970.129 853.781Q969.865 854.521 969.564 855.246Q969.264 855.972 968.928 856.682Q968.592 857.392 968.222 858.085Q967.851 858.778 967.447 859.452Q967.044 860.125 966.607 860.779Q966.171 861.432 965.703 862.063Q965.235 862.694 964.737 863.301Q964.238 863.908 963.711 864.49Q963.183 865.072 962.628 865.628Q962.072 866.183 961.49 866.711Q960.908 867.238 960.301 867.737Q959.694 868.235 959.063 868.703Q958.432 869.171 957.779 869.607Q957.125 870.044 956.452 870.447Q955.778 870.851 955.085 871.222Q954.392 871.592 953.682 871.928Q952.972 872.264 952.246 872.564Q951.521 872.865 950.781 873.129Q950.042 873.394 949.29 873.622Q948.538 873.85 947.776 874.041Q947.014 874.232 946.244 874.385Q945.473 874.538 944.696 874.654Q943.919 874.769 943.137 874.846Q942.356 874.923 941.571 874.961Q940.786 875 940.001 875L82.999 875Q82.2135 875 81.4289 874.961Q80.6443 874.923 79.8625 874.846Q79.0808 874.769 78.3038 874.654Q77.5267 874.538 76.7563 874.385Q75.9859 874.232 75.2239 874.041Q74.4619 873.85 73.7102 873.622Q72.9585 873.394 72.2189 873.129Q71.4792 872.865 70.7535 872.564Q70.0278 872.263 69.3177 871.928Q68.6076 871.592 67.9148 871.222Q67.222 870.851 66.5482 870.447Q65.8744 870.044 65.2213 869.607Q64.5682 869.171 63.9372 868.703Q63.3063 868.235 62.699 867.737Q62.0918 867.238 61.5098 866.711Q60.9277 866.183 60.3723 865.628Q59.8168 865.072 59.2893 864.49Q58.7618 863.908 58.2634 863.301Q57.7651 862.694 57.2972 862.063Q56.8292 861.432 56.3928 860.779Q55.9564 860.125 55.5525 859.452Q55.1487 858.778 54.7784 858.085Q54.4081 857.392 54.0722 856.682Q53.7364 855.972 53.4358 855.246Q53.1352 854.521 52.8705 853.781Q52.6059 853.041 52.3779 852.29Q52.1498 851.538 51.959 850.776Q51.7681 850.014 51.6148 849.244Q51.4616 848.473 51.3463 847.696Q51.2311 846.919 51.1541 846.137Q51.0771 845.356 51.0385 844.571Q51 843.786 51 843.001L51 739.999Q51 739.214 51.0385 738.429Q51.0771 737.644 51.1541 736.863Q51.2311 736.081 51.3463 735.304Q51.4616 734.527 51.6148 733.756Q51.7681 732.986 51.959 732.224Q52.1498 731.462 52.3779 730.71Q52.6059 729.958 52.8705 729.219Q53.1352 728.479 53.4358 727.753Q53.7364 727.028 54.0722 726.318Q54.4081 725.608 54.7784 724.915Q55.1487 724.222 55.5525 723.548Q55.9564 722.874 56.3928 722.221Q56.8292 721.568 57.2972 720.937Q57.7651 720.306 58.2634 719.699Q58.7618 719.092 59.2893 718.51Q59.8168 717.928 60.3723 717.372Q60.9277 716.817 61.5098 716.289Q62.0918 715.762 62.699 715.263Q63.3063 714.765 63.9372 714.297Q64.5682 713.829 65.2213 713.393Q65.8744 712.956 66.5482 712.552Q67.222 712.149 67.9148 711.778Q68.6076 711.408 69.3177 711.072Q70.0278 710.736 70.7535 710.436Q71.4792 710.135 72.2189 709.87Q72.9585 709.606 73.7102 709.378Q74.4619 709.15 75.2239 708.959Q75.9859 708.768 76.7563 708.615Q77.5267 708.462 78.3038 708.346Q79.0808 708.231 79.8625 708.154Q80.6443 708.077 81.4289 708.039Q82.2135 708 82.999 708Z" fill="#D3D3D3" fill-opacity="0.49803922" fill-rule="evenodd" stroke="none" />
    <path d="M151.999 748L867.501 748Q868.36 748 869.218 748.042Q870.076 748.084 870.931 748.169Q871.786 748.253 872.636 748.379Q873.486 748.505 874.329 748.672Q875.171 748.84 876.005 749.049Q876.838 749.258 877.661 749.507Q878.483 749.756 879.292 750.046Q880.101 750.335 880.894 750.664Q881.688 750.993 882.465 751.36Q883.242 751.727 883.999 752.133Q884.757 752.538 885.494 752.979Q886.231 753.421 886.945 753.898Q887.66 754.376 888.35 754.888Q889.04 755.399 889.704 755.944Q890.368 756.489 891.005 757.066Q891.641 757.643 892.249 758.251Q892.856 758.858 893.433 759.495Q894.01 760.132 894.556 760.796Q895.101 761.46 895.612 762.15Q896.124 762.84 896.602 763.555Q897.079 764.269 897.521 765.006Q897.962 765.743 898.367 766.501Q898.772 767.258 899.14 768.035Q899.507 768.812 899.836 769.605Q900.165 770.399 900.454 771.208Q900.743 772.017 900.993 772.839Q901.242 773.661 901.451 774.495Q901.66 775.328 901.827 776.171Q901.995 777.014 902.121 777.863Q902.247 778.713 902.332 779.568Q902.416 780.424 902.458 781.282Q902.5 782.14 902.5 782.999L902.5 783.001Q902.5 783.86 902.458 784.718Q902.416 785.576 902.332 786.431Q902.247 787.286 902.121 788.136Q901.995 788.986 901.827 789.829Q901.66 790.672 901.451 791.505Q901.242 792.338 900.993 793.161Q900.743 793.983 900.454 794.792Q900.165 795.601 899.836 796.394Q899.507 797.188 899.14 797.965Q898.772 798.742 898.367 799.499Q897.962 800.257 897.521 800.994Q897.079 801.731 896.602 802.445Q896.124 803.16 895.612 803.85Q895.101 804.54 894.556 805.204Q894.01 805.868 893.433 806.505Q892.856 807.141 892.249 807.749Q891.641 808.357 891.005 808.934Q890.368 809.511 889.704 810.056Q889.04 810.601 888.35 811.112Q887.66 811.624 886.945 812.102Q886.231 812.579 885.494 813.021Q884.757 813.462 883.999 813.867Q883.242 814.272 882.465 814.64Q881.688 815.007 880.894 815.336Q880.101 815.665 879.292 815.954Q878.483 816.243 877.661 816.493Q876.838 816.742 876.005 816.951Q875.171 817.16 874.329 817.327Q873.486 817.495 872.636 817.621Q871.786 817.747 870.931 817.831Q870.076 817.916 869.218 817.958Q868.36 818 867.501 818L151.999 818Q151.14 818 150.282 817.958Q149.424 817.916 148.568 817.831Q147.713 817.747 146.864 817.621Q146.014 817.495 145.171 817.327Q144.328 817.16 143.495 816.951Q142.661 816.742 141.839 816.493Q141.017 816.243 140.208 815.954Q139.399 815.665 138.605 815.336Q137.812 815.007 137.035 814.64Q136.258 814.272 135.501 813.867Q134.743 813.462 134.006 813.021Q133.269 812.579 132.555 812.102Q131.84 811.624 131.15 811.112Q130.46 810.601 129.796 810.056Q129.132 809.511 128.495 808.934Q127.858 808.357 127.251 807.749Q126.643 807.141 126.066 806.505Q125.489 805.868 124.944 805.204Q124.399 804.54 123.888 803.85Q123.376 803.16 122.898 802.445Q122.421 801.731 121.979 800.994Q121.538 800.257 121.133 799.499Q120.728 798.742 120.36 797.965Q119.993 797.188 119.664 796.394Q119.335 795.601 119.046 794.792Q118.756 793.983 118.507 793.161Q118.258 792.338 118.049 791.505Q117.84 790.672 117.672 789.829Q117.505 788.986 117.379 788.136Q117.253 787.286 117.169 786.431Q117.084 785.576 117.042 784.718Q117 783.86 117 783.001L117 782.999Q117 782.14 117.042 781.282Q117.084 780.424 117.169 779.568Q117.253 778.713 117.379 777.863Q117.505 777.014 117.672 776.171Q117.84 775.328 118.049 774.495Q118.258 773.661 118.507 772.839Q118.756 772.017 119.046 771.208Q119.335 770.399 119.664 769.605Q119.993 768.812 120.36 768.035Q120.728 767.258 121.133 766.501Q121.538 765.743 121.979 765.006Q122.421 764.269 122.898 763.555Q123.376 762.84 123.888 762.15Q124.399 761.46 124.944 760.796Q125.489 760.132 126.066 759.495Q126.643 758.858 127.251 758.251Q127.858 757.643 128.495 757.066Q129.132 756.489 129.796 755.944Q130.46 755.399 131.15 754.888Q131.84 754.376 132.555 753.898Q133.269 753.421 134.006 752.979Q134.743 752.538 135.501 752.133Q136.258 751.727 137.035 751.36Q137.812 750.993 138.605 750.664Q139.399 750.335 140.208 750.046Q141.017 749.756 141.839 749.507Q142.662 749.258 143.495 749.049Q144.328 748.84 145.171 748.672Q146.014 748.505 146.864 748.379Q147.713 748.253 148.568 748.169Q149.424 748.084 150.282 748.042Q151.14 748 151.999 748Z" fill="#FFFFFF" fill-rule="evenodd" stroke="none" />
  </g>
</svg>