<svg xmlns="http://www.w3.org/2000/svg" width="1024" height="1024" fill-rule="evenodd" xmlns:v="https://vecta.io/nano"><path d="M0 0h1024v1024H0V0z" fill="#fff" fill-opacity="0"/><path d="M1014 154H7v721h1007V154h0zm-17 18H27v680h970V172h0z" fill="#d3d3d3"/><path d="M27 172h970v680H27V172h0z" fill="#568dbd"/><path d="M733 619s15.375-72.75 39-132.5S827.5 374 827.5 374s17.875 1.25 60-16S996 299 996 299v141.5L733 619h0z" fill="#3774b9"/><path d="M841 267.5s26.75 24.75 65.5 28.5 86.5-14 86.5-14-53.125 31.25-91 45.5-89 21.5-89 21.5l28-81.5h0z" fill="#3e7db4"/><path d="M333 552s30.03-57.203 51.5-112S416 319.5 416 319.5s79.269 10.817 179.5 10.5 195-23.5 195-23.5L394 711l-61-159h0z" fill="#65a5dd"/><path d="M27 800s149-104.375 211-181 80-130.5 80-130.5l72.5 188L267 852H27v-52z" fill="#25569d"/><path d="M27 852h65.5s34.391-130.235 83.5-219.5c-1.435-.376-149-29.5-149-29.5v249z" fill="#1e3675"/><path d="M162 172h342s-66.25 46.247-122 118-101 148.5-101 148.5L162 172h0z" fill="#5794c9"/><path d="M224 533l64.709-105.632S259.75 352.5 232 289.5s-56-117.255-56-117.255l-48.792-.292L127.5 533H224h0z" fill="#397bc6"/><path d="M145.5 176s40.184 90.868 64.5 185 19 164 19 164l-42.5 86-41-435h0z" fill="#3369a7"/><path d="M27 792s201.159-109.252 182-331c-21.105-206.663-63.5-289-63.5-289H27v620z" fill="#25569d"/><path d="M232 852s80.163-124.223 247-298 423.5-331 423.5-331S774.807 398.405 726 579s-34 273-34 273H232h0z" fill="#3369a7"/><path d="M356.5 852S552.875 735.125 710 621.5s287-225 287-225V852H356.5z" fill="#2c5b92"/><path d="M997 580v272H356.5s57.125-30.375 113.5-65.5 112-75 112-75 176.625-37.75 267.001-69.5S997 580 997 580z" fill="#1e3675"/><g fill="#d3d3d3"><path d="M27 172h970v97H27v-97h0z" fill-opacity=".698"/><path d="M82.999 708h857.002c.259 0 14.721-.343 23.999 10s8 21.734 8 21.999L971.961 852H51.154L51 739.999c0-.259.272-11.935 9-21.999s22.735-10 22.999-10h0z" fill-opacity=".498"/></g><path d="M151.999 748h715.505c.301 0 13.989-.079 22.996 8.5 8.186 6.428 12.002 18.215 12.002 26.499 0 7.862-2.721 17.917-12.002 26.501s-22.681 8.5-22.996 8.5H151.999c-.363 0-12.317-.357-20.499-6.888S117.9 795.696 117.9 784c0-11.677 3.898-20.231 12.6-28.056S151.635 748 151.999 748h0z" fill="#fff"/></svg>