<?xml version="1.0" encoding="utf-8"?>
<svg width="1024px" height="1024px" viewBox="0 0 1024 1024" version="1.1" xmlns:xlink="http://www.w3.org/1999/xlink" xmlns="http://www.w3.org/2000/svg">
  <path d="M0 0L1024 0L1024 1024L0 1024L0 0Z" fill="#FFFFFF" fill-opacity="0" fill-rule="evenodd" stroke="none" />
  <g transform="translate(7 153.99991)">
	<path d="M1007 0L0 0L0 721L1007 721L1007 0L1007 0ZM990 18L20 18L20 698L990 698L990 18L990 18Z" id="Rectangle-Difference" fill="#D3D3D3" fill-rule="evenodd" stroke="none" />
	<g transform="translate(19.999695 17.953217)">
	  <path d="M0.000305176 0.0467834L970 0.0467834L970 680.047L0.000305176 680.047L0.000305176 0.0467834L0.000305176 0.0467834Z" fill="#568DBD" fill-rule="evenodd" stroke="none" />
	  <path d="M706 447.047C706 447.047 721.375 374.297 745 314.547C768.625 254.797 800.5 202.047 800.5 202.047C800.5 202.047 818.375 203.297 860.5 186.047C902.625 168.797 969 127.047 969 127.047L969 268.547L706 447.047L706 447.047Z" fill="#3774B9" fill-rule="evenodd" stroke="none" />
	  <path d="M814 95.5468C814 95.5468 840.75 120.297 879.5 124.047C918.25 127.797 966 110.047 966 110.047C966 110.047 912.875 141.297 875 155.547C837.125 169.797 786 177.047 786 177.047L814 95.5468L814 95.5468Z" fill="#3E7DB4" fill-rule="evenodd" stroke="none" />
	  <path d="M306 380.047C306 380.047 336.03 322.844 357.5 268.047C378.97 213.25 389 147.547 389 147.547C389 147.547 468.269 158.364 568.5 158.047C668.731 157.73 763.5 134.547 763.5 134.547L367 539.047L306 380.047L306 380.047Z" fill="#65A5DD" fill-rule="evenodd" stroke="none" />
	  <path d="M0.000305176 628.047C0.000305176 628.047 149 523.672 211 447.047C273 370.422 291 316.547 291 316.547L363.5 504.547L240 680.047L0.000305176 680.047L0.000305176 628.047Z" fill="#25569D" fill-rule="evenodd" stroke="none" />
	  <path d="M0 680.047L65.5003 680.047C65.5003 680.047 99.8911 549.812 149 460.547C147.565 460.171 0 431.047 0 431.047L0 680.047Z" fill="#1E3675" fill-rule="evenodd" stroke="none" />
	  <path d="M135 0.0467834L477 0.0467834C477 0.0467834 410.75 46.2936 355 118.047C299.25 189.8 254 266.547 254 266.547L135 0.0467834L135 0.0467834Z" fill="#5794C9" fill-rule="evenodd" stroke="none" />
	  <path d="M197 361.047L261.709 255.415C261.709 255.415 232.75 180.547 205 117.547C177.25 54.5468 149 0.292404 149 0.292404L100.208 0L100.5 361.047L197 361.047L197 361.047Z" fill="#397BC6" fill-rule="evenodd" stroke="none" />
	  <path d="M118.5 4.04678C118.5 4.04678 158.684 94.9151 183 189.047C207.316 283.179 202 353.047 202 353.047L159.5 439.047L118.5 4.04678L118.5 4.04678Z" fill="#3369A7" fill-rule="evenodd" stroke="none" />
	  <path d="M0.000305176 620.047C0.000305176 620.047 201.159 510.795 182 289.047C160.895 82.3842 118.5 0.0467834 118.5 0.0467834L0.000305176 0.0467834L0.000305176 620.047Z" fill="#25569D" fill-rule="evenodd" stroke="none" />
	  <path d="M205 680.047C205 680.047 285.163 555.824 452 382.047C618.837 208.271 875.5 51.0468 875.5 51.0468C875.5 51.0468 747.807 226.452 699 407.047C650.193 587.642 665 680.047 665 680.047L205 680.047L205 680.047Z" fill="#3369A7" fill-rule="evenodd" stroke="none" />
	  <path d="M329.5 680.047C329.5 680.047 525.875 563.172 683 449.547C840.125 335.922 970 224.547 970 224.547L970 680.047L329.5 680.047Z" fill="#2C5B92" fill-rule="evenodd" stroke="none" />
	  <path d="M970 408.047C970 408.047 970 680.047 970 680.047C970 680.047 329.5 680.047 329.5 680.047C329.5 680.047 386.625 649.672 443 614.547C499.375 579.422 555 539.547 555 539.547C555 539.547 731.625 501.797 822.001 470.047C912.376 438.297 970 408.047 970 408.047Z" fill="#1E3675" fill-rule="evenodd" stroke="none" />
	</g>
	<path d="M20 18L990 18L990 115L20 115L20 18L20 18Z" fill="#D3D3D3" fill-opacity="0.69803923" fill-rule="evenodd" stroke="none" />
	<path d="M75.999 554L933.001 554C933.26 554 947.722 553.657 957 564C966.278 574.343 965 585.734 965 585.999L964.961 698L44.1541 698L44 585.999C44 585.74 44.2716 574.064 53 564C61.7284 553.936 75.735 554 75.999 554L75.999 554Z" fill="#D3D3D3" fill-opacity="0.49803922" fill-rule="evenodd" stroke="none" />
	<path d="M144.999 594L860.504 594C860.805 594 874.493 593.921 883.5 602.5C891.686 608.928 895.502 620.715 895.502 628.999C895.502 636.861 892.781 646.916 883.5 655.5C874.219 664.084 860.819 664 860.504 664L144.999 664C144.636 664 132.682 663.643 124.5 657.112C116.318 650.582 110.9 641.696 110.9 630C110.9 618.323 114.798 609.769 123.5 601.944C132.202 594.119 144.635 594 144.999 594L144.999 594Z" fill="#FFFFFF" fill-rule="evenodd" stroke="none" />
  </g>
</svg>